<?xml version="1.0" standalone="no"?>
<!DOCTYPE svg PUBLIC "-//W3C//DTD SVG 20010904//EN"
 "http://www.w3.org/TR/2001/REC-SVG-20010904/DTD/svg10.dtd">
<svg version="1.0" xmlns="http://www.w3.org/2000/svg"
 width="77.000000pt" height="77.000000pt" viewBox="0 0 77.000000 77.000000"
 preserveAspectRatio="xMidYMid meet">
<metadata>
Created by potrace 1.14, written by Peter Selinger 2001-2017
</metadata>
<g transform="translate(0.000000,77.000000) scale(0.100000,-0.100000)"
fill="#000000" stroke="none">
<path d="M415 686 c-38 -12 -92 -35 -120 -49 -27 -15 -59 -27 -71 -27 -11 0
-42 -7 -68 -16 -62 -21 -96 -69 -96 -138 0 -44 4 -53 43 -90 23 -23 55 -51 72
-63 27 -19 30 -28 35 -85 4 -47 9 -63 20 -63 11 0 16 13 18 45 6 79 -4 102
-59 139 -84 57 -116 111 -60 103 58 -8 135 63 129 119 -3 24 -1 24 77 23 55
-1 94 -7 124 -20 l44 -19 -40 -1 c-22 -1 -50 -7 -64 -15 -13 -7 -31 -13 -39
-14 -9 0 -14 -8 -13 -20 1 -11 -2 -35 -8 -52 -14 -43 -4 -70 31 -88 53 -27 88
-20 138 30 42 43 44 47 38 87 l-6 43 19 -25 c35 -45 42 -155 14 -215 -17 -35
-16 -35 13 -78 40 -56 72 -61 97 -14 18 33 18 36 2 61 -10 14 -22 26 -27 26
-5 0 2 14 16 31 32 38 33 54 1 95 l-26 34 21 41 c26 50 22 56 -58 84 -57 20
-57 20 -70 75 -15 58 -27 80 -46 80 -6 -1 -42 -11 -81 -24z m81 -43 c3 -16 8
-36 11 -47 3 -11 1 -16 -5 -12 -6 4 -44 15 -84 25 l-73 18 55 21 c74 28 88 28
96 -5z m-286 -83 c0 -5 -4 -10 -9 -10 -6 0 -13 5 -16 10 -3 6 1 10 9 10 9 0
16 -4 16 -10z m-80 -39 c-15 -29 13 -40 40 -16 11 10 23 15 27 11 14 -14 -41
-46 -67 -40 -34 8 -34 8 -15 44 9 18 19 30 22 27 2 -3 0 -15 -7 -26z m507 -10
c9 -5 9 -11 0 -28 -12 -21 -12 -21 -35 13 l-23 36 23 -7 c13 -4 28 -10 35 -14z
m-140 -16 c9 -25 -2 -27 -41 -11 -45 19 -46 26 -1 26 23 0 38 -6 42 -15z m-97
-99 c13 -13 40 12 40 36 0 17 4 19 27 13 16 -4 30 -9 32 -11 10 -9 -54 -64
-74 -64 -34 0 -57 32 -48 66 l8 29 3 -30 c2 -16 8 -34 12 -39z m260 -51 c0 -7
-7 -18 -15 -25 -13 -11 -15 -7 -15 25 0 32 2 36 15 25 8 -7 15 -18 15 -25z
m-10 -139 c-1 -19 -3 -18 -25 8 -13 17 -21 34 -18 39 8 14 43 -24 43 -47z"/>
<path d="M190 410 c0 -11 53 -40 75 -40 25 0 17 18 -15 35 -33 17 -60 20 -60
5z"/>
<path d="M10 326 c0 -42 70 -110 91 -89 5 5 -3 18 -20 31 -16 12 -32 35 -36
52 -8 36 -35 41 -35 6z"/>
<path d="M65 330 c-9 -15 22 -60 40 -60 19 0 19 4 0 40 -16 31 -29 37 -40 20z"/>
</g>
</svg>
